<svg width="34" height="34" viewBox="0 0 34 34" fill="none" xmlns="http://www.w3.org/2000/svg">
<path d="M34 17C34 7.61116 26.3888 0 17 0C7.61116 0 0 7.61116 0 17C0 26.3888 7.61116 34 17 34C26.3888 34 34 26.3888 34 17Z" fill="#B7AAA2"/>
<path fill-rule="evenodd" clip-rule="evenodd" d="M20.5856 17.0001L13.9998 23.5859C13.6093 23.9764 13.6093 24.6096 13.9998 25.0001C14.3904 25.3906 15.0235 25.3906 15.4141 25.0001L23.4141 17.0001L15.4141 9.00007C15.0235 8.60955 14.3904 8.60955 13.9998 9.00008C13.6093 9.3906 13.6093 10.0238 13.9998 10.4143L20.5856 17.0001Z" fill="#251D1A"/>
</svg>
